<svg width="89" height="67" viewBox="0 0 89 67" fill="none" xmlns="http://www.w3.org/2000/svg"><path id="Vector" d="M22.2769 19.3971L37.5069 25.4576L24.7665 42.3711L18.6572 66.886V66.8918H30.1299V66.886L36.2392 46.2265L40.0854 41.1205L49.1202 48.7449L50.4883 66.8918H61.9495C61.9495 66.7451 61.9725 66.6013 61.961 66.4546L60.2 43.0611L47.0092 31.9291L49.1775 29.0542L83.8739 20.754C86.9544 20.018 88.8559 16.916 88.1217 13.8254C87.3874 10.7377 84.3013 8.83441 81.2094 9.56753L60.0423 14.6303L64.1208 9.21395C66.031 6.68109 65.5261 3.07293 62.9993 1.16107C60.4695 -0.750792 56.8729 -0.250396 54.9655 2.28533L44.6831 15.9385L26.516 8.71086C23.5733 7.53787 20.2405 8.98103 19.0674 11.9336C17.8943 14.8834 19.3312 18.2241 22.2769 19.3971Z" fill="#ED97E9"></path><path id="Vector_2" d="M4.61517 20.0214L24.919 23.7059L20.6486 34.2733L10.5767 50.577V66.0317C10.5767 66.324 10.6189 66.6079 10.6639 66.8918H21.7275C21.7724 66.6079 21.8145 66.3268 21.8145 66.0317V53.7724L25.8939 47.1706L29.9732 53.7724V66.0317C29.9732 66.324 30.0153 66.6079 30.0602 66.8918H41.1238C41.1688 66.6079 41.2109 66.3268 41.2109 66.0317V50.577L32.3303 36.2012L35.1425 28.6018L58.2024 20.1367C61.1158 19.0687 62.6104 15.8394 61.54 12.9249C60.4696 10.0077 57.2331 8.51532 54.331 9.58611L40.708 14.5888L43.4978 7.72836C44.6609 4.85043 43.2702 1.57341 40.3933 0.40987C37.5165 -0.750857 34.2435 0.637635 33.0776 3.51556L29.2202 13.0627L6.62391 8.96498C3.57286 8.40288 0.645388 10.4377 0.0919286 13.4927C-0.464341 16.5421 1.56131 19.4678 4.61517 20.0214Z" fill="#FE2722"></path></svg>